# xmcd CD Database Entry
#
# Track frame offsets:
# 150
# 12890
# 22794
# 39583
# 56430
# 69125
# 87542
# 99056
# 114396
# 129120
# 147159
# 164221
# 178590
# 195275
# 224270
# 242409
# 258040
#
# Disc length: 3700 seconds
#
# Revision: 4
# Processed by: cddbd v1.4PL0 Copyright (c) Steve Scherf et al.
# Submitted via: tcd 2.0b
#
DISCID=ce0e7211
DTITLE=alternative distribution alliance - fall 2003 sampler 
DYEAR=1900
DGENRE=
TTITLE0=The Shins: "So Says I" from Chutes Too Narrow (Sub Pop) 10/21
TTITLE0=
TTITLE1=Death Cab for Cutie: "The Sound of Settling" from Transatlati
TTITLE1=cism (Barsuk) 10/7
TTITLE2=Pretty Girls Make Graves: "This Is Our Emergency" from The Ne
TTITLE2=w Romance (Matador) 9/9
TTITLE3=The Stills: "Still In Love Song" from Logic Will Break Your H
TTITLE3=eart (Vice) 10/21
TTITLE4=Enon: "Shave" from Hocus-Pocus (Touch And Go) 9/9
TTITLE5=Lucero: "Tears Don't Matter Much" from That Much Further West
TTITLE5=(Tiger Style) 9/23
TTITLE6=Peaches: "Kick It" from Fatherf*cker (XL/Beggars Group) 9/23
TTITLE7=Ten Benson: "Tits" from Benson Burner (Jetset) 8/5
TTITLE8=Trailer Bride: "Hope Is A Thing With Feathers" from Hope Is A
TTITLE8=Thing With Feathers (Bloodshot) 9/23
TTITLE9=Rosie Thomas: "I Play Music" from Only With Laughter Can You 
TTITLE9=Win (Sub Pop) 9/23
TTITLE10=The Decemberists: "The Soldiering Life" from Her Majesty, The
TTITLE10=Decemberists (Kill Rock Stars) 9/9
TTITLE11=People Under the Stars: "Take The Fruit" from Or Stay Tuned (
TTITLE11=Om) 8/19
TTITLE12=Mofro: "Lazy Fo Acre" from Blackwater (Dare) 9/23
TTITLE13=Da Lata: "Serious" from Serious (Palm) 10/7
TTITLE14=Caroline Herring: "Colorado Woman" from Wellspring (Blue Corn
TTITLE14=) 8/19
TTITLE15=Iron and Wine: "The Sea and the Rhythm" from The Sea and the 
TTITLE15=Rhythm (Sub Pop) 9/9
TTITLE16=Apollo Sunshine: "I Was On The Moon" from Katonah (SpinART) 1
TTITLE16=0/7
EXTD=
EXTT0=
EXTT1=
EXTT2=
EXTT3=
EXTT4=
EXTT5=
EXTT6=
EXTT7=
EXTT8=
EXTT9=
EXTT10=
EXTT11=
EXTT12=
EXTT13=
EXTT14=
EXTT15=
EXTT16=
PLAYORDER=
